HIERARCHY
ROOT Hips
{
	OFFSET	0.00	0.00	0.00
	CHANNELS 6 Xposition Yposition Zposition Zrotation Xrotation Yrotation
	JOINT LeftUpLeg
	{
		OFFSET	 0.126116	-0.014019	-0.065224
		CHANNELS 3 Zrotation Xrotation Yrotation
		JOINT LeftLeg
		{
			OFFSET	 0.000000	 0.000000	 0.569914
			CHANNELS 3 Zrotation Xrotation Yrotation
			JOINT LeftFoot
			{
				OFFSET	 0.000000	 0.000000	 0.544423
				CHANNELS 3 Zrotation Xrotation Yrotation
				JOINT LeftToeBase
				{
					OFFSET	 0.000000	 0.000000	 0.207117
					CHANNELS 3 Zrotation Xrotation Yrotation
					End Site
					{
						OFFSET	 0.000000	 0.000000	 0.207117
					}
				}
			}
		}
	}
	JOINT RightUpLeg
	{
		OFFSET	-0.124023	-0.008373	-0.065224
		CHANNELS 3 Zrotation Xrotation Yrotation
		JOINT RightLeg
		{
			OFFSET	 0.000000	 0.000000	 0.570047
			CHANNELS 3 Zrotation Xrotation Yrotation
			JOINT RightFoot
			{
				OFFSET	 0.000000	 0.000000	 0.544354
				CHANNELS 3 Zrotation Xrotation Yrotation
				JOINT RightToeBase
				{
					OFFSET	 0.000000	 0.000000	 0.207540
					CHANNELS 3 Zrotation Xrotation Yrotation
					End Site
					{
						OFFSET	 0.000000	 0.000000	 0.207540
					}
				}
			}
		}
	}
	JOINT Spine
	{
		OFFSET	 0.000184	-0.007763	 0.117403
		CHANNELS 3 Zrotation Xrotation Yrotation
		JOINT Spine1
		{
			OFFSET	 0.000000	 0.000000	 0.137269
			CHANNELS 3 Zrotation Xrotation Yrotation
			JOINT Spine2
			{
				OFFSET	 0.000000	 0.000000	 0.156879
				CHANNELS 3 Zrotation Xrotation Yrotation
				JOINT LeftShoulder
				{
					OFFSET	 0.080501	-0.002496	 0.160144
					CHANNELS 3 Zrotation Xrotation Yrotation
					JOINT LeftArm
					{
						OFFSET	 0.000000	 0.000000	 0.164363
						CHANNELS 3 Zrotation Xrotation Yrotation
						JOINT LeftForeArm
						{
							OFFSET	 0.000000	 0.000000	 0.364576
							CHANNELS 3 Zrotation Xrotation Yrotation
							JOINT LeftHand
							{
								OFFSET	 0.000000	 0.000000	 0.360812
								CHANNELS 3 Zrotation Xrotation Yrotation
								JOINT LeftHandIndex1
								{
									OFFSET	 0.000000	 0.000000	 0.086006
									CHANNELS 3 Zrotation Xrotation Yrotation
									JOINT LeftHandIndex2
									{
										OFFSET	 0.000000	 0.000000	 0.047236
										CHANNELS 3 Zrotation Xrotation Yrotation
										JOINT LeftHandIndex3
										{
											OFFSET	-0.004284	-0.000551	 0.038166
											CHANNELS 3 Zrotation Xrotation Yrotation
											End Site
											{
												OFFSET	-0.004284	-0.000551	 0.038166
											}
										}
									}
								}
							}
						}
					}
				}
				JOINT Neck
				{
					OFFSET	 0.000000	 0.000000	 0.176489
					CHANNELS 3 Zrotation Xrotation Yrotation
					JOINT Head
					{
						OFFSET	 0.000000	-0.001747	 0.077940
						CHANNELS 3 Zrotation Xrotation Yrotation
						End Site
						{
							OFFSET	 0.000000	-0.001747	 0.077940
						}
					}
				}
				JOINT RightShoulder
				{
					OFFSET	-0.080363	 0.000306	 0.159706
					CHANNELS 3 Zrotation Xrotation Yrotation
					JOINT RightArm
					{
						OFFSET	 0.000000	 0.000000	 0.164196
						CHANNELS 3 Zrotation Xrotation Yrotation
						JOINT RightForeArm
						{
							OFFSET	 0.000000	 0.000000	 0.365611
							CHANNELS 3 Zrotation Xrotation Yrotation
							JOINT RightHand
							{
								OFFSET	 0.000000	 0.000000	 0.360648
								CHANNELS 3 Zrotation Xrotation Yrotation
								JOINT RightHandIndex1
								{
									OFFSET	 0.000000	 0.000000	 0.069977
									CHANNELS 3 Zrotation Xrotation Yrotation
									JOINT RightHandIndex2
									{
										OFFSET	 0.000000	 0.000000	 0.052305
										CHANNELS 3 Zrotation Xrotation Yrotation
										JOINT RightHandIndex3
										{
											OFFSET	 0.009002	-0.000782	 0.042196
											CHANNELS 3 Zrotation Xrotation Yrotation
											End Site
											{
												OFFSET	 0.009002	-0.000782	 0.042196
											}
										}
									}
								}
							}
						}
					}
				}
			}
		}
	}
}
MOTION
Frames:    6
Frame Time: 0.03333334
-0.000644	 0.020034	 1.266683	 0.002777	-0.001529	-0.186980	 14.940830	-3.818206	 175.703800	 1.448968	-13.760110	-0.807201	-11.108380	 70.705480	 5.454404	-2.385833	 28.452760	 0.000004	-14.982850	-4.671403	-175.452700	-1.419720	-14.858110	 0.858411	 11.050330	 71.187700	-5.511271	 2.384658	 28.388730	 0.000004	-0.156459	 2.817983	-0.116763	 2.176169	 3.420523	 0.871239	-6.553133	-4.164290	-1.404476	-91.776270	 78.527420	-179.999900	 47.571240	 34.018870	-61.088730	-10.280640	 0.229392	-1.384056	-29.829940	-0.436262	-4.353215	-2.635965	 4.993658	 6.788941	-5.165319	 0.784187	 3.516649	-5.225038	 0.466231	 0.424329	-0.000002	-3.783157	-0.089647	-6.384618	 4.770644	 0.266216	 89.782120	 78.203870	 180.000000	-61.522760	 40.918660	 57.303320	 10.274080	 0.257683	 1.405551	 29.221400	-1.242903	 8.909379	 6.112037	 4.509576	-0.364401	 4.968462	 1.518543	-9.347576	 5.168945	 0.703820	 2.021906
-0.000642	 0.020234	 1.263705	 0.002912	-0.001780	-0.184915	 15.677600	-5.049744	 175.740300	 1.411063	-16.143180	-0.954115	-11.990650	 71.825380	 6.388793	-2.385833	 28.452760	 0.000004	-15.720730	-5.829223	-175.489100	-1.382285	-17.083650	 0.994422	 11.878750	 72.234150	-6.385839	 2.384658	 28.388730	 0.000004	-2.755641	 2.853230	-0.121844	 2.169022	 3.297658	 0.875939	-6.533383	-4.007959	-1.389198	-91.776170	 78.527450	 180.000000	 47.410150	 33.899500	-60.899280	-11.523480	 0.291833	-1.935153	-30.076220	-0.393899	-4.354785	-2.635965	 4.993658	 6.788941	-5.165319	 0.784187	 3.516649	-5.225038	 0.466231	 0.424329	-0.000002	-3.783157	-0.089647	-6.372560	 4.846721	 0.269955	 89.782250	 78.203850	 179.999800	-61.079120	 40.718010	 57.571310	 11.341940	 0.320292	 1.957647	 29.481040	-1.240277	 8.893237	 6.112037	 4.509576	-0.364401	 4.968462	 1.518543	-9.347576	 5.168945	 0.703820	 2.021906
-0.000634	 0.020650	 1.257546	 0.003141	-0.002240	-0.179874	 17.233520	-7.181169	 175.780300	 1.330094	-20.210170	-1.213494	-13.752620	 73.703050	 8.238717	-2.385833	 28.452760	 0.000004	-17.276690	-7.872450	-175.536700	-1.302389	-20.958550	 1.239420	 13.555580	 74.027370	-8.141820	 2.384658	 28.388730	 0.000004	-7.782628	 2.925766	-0.131297	 2.145479	 3.044294	 0.881706	-6.465547	-3.687465	-1.352245	-91.776230	 78.527420	-180.000000	 47.071650	 33.650050	-60.494290	-13.948110	 0.483399	-3.005467	-30.559750	-0.310827	-4.357028	-2.635965	 4.993658	 6.788941	-5.165319	 0.784187	 3.516649	-5.225038	 0.466231	 0.424329	-0.000002	-3.783157	-0.089647	-6.320774	 5.006805	 0.276612	 89.782100	 78.203900	 180.000000	-60.052120	 40.267930	 58.295290	 13.540270	 0.510774	 3.027344	 29.860750	-1.224996	 8.835694	 6.112037	 4.509576	-0.364401	 4.968462	 1.518543	-9.347576	 5.168945	 0.703820	 2.021906
-0.000629	 0.021066	 1.251423	 0.003555	-0.002095	-0.173187	 18.803700	-8.975241	 175.792600	 1.246189	-23.574510	-1.438447	-15.515090	 75.221590	 10.072770	-2.385833	 28.452760	 0.000004	-18.846980	-9.614631	-175.563800	-1.219616	-24.209320	 1.454894	 15.249320	 75.501250	-9.900021	 2.384658	 28.388730	 0.000004	-12.412800	 2.996507	-0.139750	 2.110242	 2.794631	 0.882477	-6.362173	-3.374115	-1.309100	-91.776150	 78.527470	 180.000000	 46.728150	 33.397990	-60.072410	-16.228150	 0.748149	-4.002471	-31.019680	-0.232058	-4.358143	-2.635965	 4.993658	 6.788941	-5.165319	 0.784187	 3.516649	-5.225038	 0.466231	 0.424329	-0.000002	-3.783157	-0.089647	-6.233304	 5.168867	 0.281617	 89.782100	 78.203900	 180.000000	-58.952940	 39.638420	 59.292660	 15.452580	 0.775020	 4.027571	 30.378730	-1.375645	 8.699078	 6.112037	 4.509576	-0.364401	 4.968462	 1.518543	-9.347576	 5.168945	 0.703820	 2.021906
-0.000626	 0.021471	 1.245517	 0.004029	-0.001333	-0.165329	 20.328650	-10.514680	 175.789400	 1.161980	-26.417190	-1.637668	-17.279560	 76.477640	 11.896270	-2.385833	 28.452760	 0.000004	-20.373230	-11.118270	-175.579400	-1.136559	-26.975600	 1.647083	 16.954320	 76.731320	-11.657950	 2.384658	 28.388730	 0.000004	-16.547480	 3.062957	-0.146671	 2.065262	 2.557424	 0.877958	-6.228829	-3.078694	-1.261809	-91.776170	 78.527450	 180.000000	 46.391650	 33.151290	-59.647670	-18.326520	 1.064514	-4.909060	-31.449520	-0.158720	-4.358306	-2.635965	 4.993658	 6.788941	-5.165319	 0.784187	 3.516649	-5.225038	 0.466231	 0.424329	-0.000002	-3.783157	-0.089647	-6.115002	 5.326687	 0.284710	 89.782090	 78.203830	 180.000000	-57.704460	 38.963160	 60.451500	 17.183410	 1.088431	 4.933286	 30.881910	-1.545276	 8.560431	 6.112037	 4.509576	-0.364401	 4.968462	 1.518543	-9.347576	 5.168945	 0.703820	 2.021906
-0.000622	 0.021871	 1.239748	 0.004509	-0.000532	-0.156995	 21.810960	-11.893320	 175.778500	 1.076226	-28.931930	-1.822260	-19.136830	 77.564620	 13.789110	-2.385833	 28.452760	 0.000004	-21.888980	-12.471890	-175.587900	-1.052024	-29.433140	 1.825906	 18.692790	 77.805200	-13.456010	 2.384658	 28.388730	 0.000004	-20.272560	 3.126547	-0.151517	 2.010922	 2.329968	 0.868333	-6.066779	-2.797387	-1.210593	-91.776200	 78.527400	-180.000000	 46.057550	 32.912490	-59.219850	-20.293750	 1.423384	-5.744550	-31.859990	-0.089083	-4.357680	-2.635965	 4.993658	 6.788941	-5.165319	 0.784187	 3.516649	-5.225038	 0.466231	 0.424329	-0.000002	-3.783157	-0.089647	-5.967216	 5.481764	 0.285917	 89.782140	 78.203900	 180.000000	-55.610320	 37.946760	 59.100400	 18.540800	 4.106491	 9.673367	 31.374040	-1.735001	 8.418756	 6.112037	 4.509576	-0.364401	 4.968462	 1.518543	-9.347576	 5.168945	 0.703820	 2.021906
